<svg width="610" height="287" viewBox="0 0 610 287" fill="none" xmlns="http://www.w3.org/2000/svg">
<path d="M65.22 35.84L69.9 119H52.74L51.72 83.42C51.6 79.02 51.56 75.2 51.6 71.96C51.68 68.72 51.82 65.62 52.02 62.66C52.22 59.66 52.46 56.3 52.74 52.58L43.38 104.84H28.5L18.42 52.58C18.74 56.06 19 59.34 19.2 62.42C19.4 65.46 19.52 68.66 19.56 72.02C19.64 75.38 19.64 79.28 19.56 83.72L18.96 119H2.1L6.78 35.84H27L36.24 89.6L45 35.84H65.22ZM93.1931 92.66C93.8331 97.86 95.5331 101.6 98.2931 103.88C101.053 106.12 104.453 107.24 108.493 107.24C111.413 107.24 114.233 106.76 116.953 105.8C119.673 104.84 122.293 103.56 124.813 101.96L132.433 112.28C129.433 114.84 125.793 116.94 121.513 118.58C117.273 120.22 112.433 121.04 106.993 121.04C99.7131 121.04 93.6131 119.6 88.6931 116.72C83.7731 113.8 80.0731 109.8 77.5931 104.72C75.1131 99.64 73.8731 93.8 73.8731 87.2C73.8731 80.92 75.0731 75.22 77.4731 70.1C79.8731 64.94 83.3731 60.84 87.9731 57.8C92.6131 54.72 98.2731 53.18 104.953 53.18C111.033 53.18 116.293 54.48 120.733 57.08C125.213 59.68 128.673 63.42 131.113 68.3C133.593 73.18 134.833 79.04 134.833 85.88C134.833 86.96 134.793 88.12 134.713 89.36C134.673 90.6 134.593 91.7 134.473 92.66H93.1931ZM104.953 65.9C101.553 65.9 98.8131 67.12 96.7331 69.56C94.6531 72 93.3931 75.9 92.9531 81.26H116.353C116.313 76.62 115.413 72.9 113.653 70.1C111.893 67.3 108.993 65.9 104.953 65.9ZM161.666 28.1V61.58C166.986 55.98 173.226 53.18 180.386 53.18C186.066 53.18 190.406 54.84 193.406 58.16C196.406 61.48 197.906 66.16 197.906 72.2V119H178.946V77.48C178.946 73.64 178.506 70.96 177.626 69.44C176.786 67.92 175.186 67.16 172.826 67.16C170.826 67.16 168.906 67.86 167.066 69.26C165.266 70.62 163.466 72.5 161.666 74.9V119H142.706V29.96L161.666 28.1ZM206.859 119V106.28H215.259V67.88H206.859V55.28H229.719L233.199 69.62C235.479 64.14 238.379 60.06 241.899 57.38C245.459 54.7 249.799 53.36 254.919 53.36C257.079 53.36 258.999 53.54 260.679 53.9C262.359 54.22 263.939 54.68 265.419 55.28L261.879 81.92H249.999V70.16C246.399 70.8 243.239 72.76 240.519 76.04C237.799 79.28 235.699 83.28 234.219 88.04V106.28H246.819V119H206.859ZM292.973 119V35.84H312.652V103.46H348.713L346.673 119H292.973ZM378.846 21.92C382.126 21.92 384.806 22.94 386.886 24.98C388.966 27.02 390.006 29.56 390.006 32.6C390.006 35.64 388.966 38.2 386.886 40.28C384.806 42.32 382.126 43.34 378.846 43.34C375.526 43.34 372.806 42.32 370.686 40.28C368.606 38.2 367.566 35.64 367.566 32.6C367.566 29.56 368.606 27.02 370.686 24.98C372.806 22.94 375.526 21.92 378.846 21.92ZM390.306 55.28V106.04H406.506V119H353.286V106.04H371.346V68.24H353.886V55.28H390.306ZM445.099 106.1C447.699 106.1 450.139 105.6 452.419 104.6C454.739 103.56 457.039 102.24 459.319 100.64L467.779 112.64C464.979 115.04 461.559 117.04 457.519 118.64C453.519 120.24 449.039 121.04 444.079 121.04C437.239 121.04 431.359 119.64 426.439 116.84C421.519 114 417.739 110.08 415.099 105.08C412.459 100.04 411.139 94.2 411.139 87.56C411.139 80.92 412.479 75.02 415.159 69.86C417.879 64.66 421.719 60.58 426.679 57.62C431.679 54.66 437.599 53.18 444.439 53.18C449.279 53.18 453.579 53.86 457.339 55.22C461.139 56.54 464.619 58.52 467.779 61.16L459.559 72.56C457.399 71.04 455.119 69.86 452.719 69.02C450.319 68.18 447.819 67.76 445.219 67.76C440.939 67.76 437.479 69.28 434.839 72.32C432.239 75.32 430.939 80.4 430.939 87.56C430.939 92.24 431.559 95.94 432.799 98.66C434.039 101.34 435.719 103.26 437.839 104.42C439.999 105.54 442.419 106.1 445.099 106.1ZM496.232 28.1V61.58C501.552 55.98 507.792 53.18 514.952 53.18C520.632 53.18 524.972 54.84 527.972 58.16C530.972 61.48 532.472 66.16 532.472 72.2V119H513.512V77.48C513.512 73.64 513.072 70.96 512.192 69.44C511.352 67.92 509.752 67.16 507.392 67.16C505.392 67.16 503.472 67.86 501.632 69.26C499.832 70.62 498.032 72.5 496.232 74.9V119H477.272V29.96L496.232 28.1ZM599.385 115.28C596.905 116.88 593.905 118.24 590.385 119.36C586.865 120.48 582.905 121.04 578.505 121.04C570.185 121.04 564.005 118.92 559.965 114.68C555.925 110.4 553.905 104.6 553.905 97.28V68.36H540.525V55.28H553.905V41.48L572.865 39.2V55.28H593.385L591.525 68.36H572.865V97.28C572.865 100.44 573.585 102.7 575.025 104.06C576.465 105.42 578.765 106.1 581.925 106.1C584.165 106.1 586.205 105.84 588.045 105.32C589.925 104.76 591.605 104.06 593.085 103.22L599.385 115.28Z" fill="white"/>
<path d="M199.68 183.18C208 183.18 213.96 186.22 217.56 192.3C221.16 198.38 222.96 206.6 222.96 216.96C222.96 223.52 222 229.38 220.08 234.54C218.16 239.66 215.38 243.7 211.74 246.66C208.1 249.58 203.68 251.04 198.48 251.04C192.28 251.04 187.24 248.82 183.36 244.38V273.6L164.4 275.58V185.28H181.2L182.04 192.42C184.64 189.1 187.48 186.74 190.56 185.34C193.64 183.9 196.68 183.18 199.68 183.18ZM193.8 197.16C191.6 197.16 189.66 197.82 187.98 199.14C186.3 200.46 184.76 202.26 183.36 204.54V231.42C184.68 233.38 186.06 234.82 187.5 235.74C188.98 236.66 190.72 237.12 192.72 237.12C196.08 237.12 198.7 235.6 200.58 232.56C202.46 229.48 203.4 224.36 203.4 217.2C203.4 211.92 203.02 207.84 202.26 204.96C201.5 202.04 200.4 200.02 198.96 198.9C197.52 197.74 195.8 197.16 193.8 197.16ZM249.313 158.1V191.58C254.633 185.98 260.873 183.18 268.033 183.18C273.713 183.18 278.053 184.84 281.053 188.16C284.053 191.48 285.553 196.16 285.553 202.2V249H266.593V207.48C266.593 203.64 266.153 200.96 265.273 199.44C264.433 197.92 262.833 197.16 260.473 197.16C258.473 197.16 256.553 197.86 254.713 199.26C252.913 200.62 251.113 202.5 249.313 204.9V249H230.353V159.96L249.313 158.1ZM323.906 183.18C330.466 183.18 336.046 184.58 340.646 187.38C345.246 190.18 348.766 194.12 351.206 199.2C353.646 204.24 354.866 210.16 354.866 216.96C354.866 227.6 352.146 235.94 346.706 241.98C341.266 248.02 333.666 251.04 323.906 251.04C314.146 251.04 306.546 248.06 301.106 242.1C295.666 236.14 292.946 227.8 292.946 217.08C292.946 210.32 294.166 204.4 296.606 199.32C299.086 194.24 302.626 190.28 307.226 187.44C311.866 184.6 317.426 183.18 323.906 183.18ZM323.906 197.16C320.026 197.16 317.146 198.76 315.266 201.96C313.426 205.12 312.506 210.16 312.506 217.08C312.506 224.12 313.426 229.22 315.266 232.38C317.146 235.54 320.026 237.12 323.906 237.12C327.786 237.12 330.646 235.54 332.486 232.38C334.366 229.22 335.306 224.08 335.306 216.96C335.306 210.08 334.366 205.06 332.486 201.9C330.646 198.74 327.786 197.16 323.906 197.16ZM416.019 245.28C413.539 246.88 410.539 248.24 407.019 249.36C403.499 250.48 399.539 251.04 395.139 251.04C386.819 251.04 380.639 248.92 376.599 244.68C372.559 240.4 370.539 234.6 370.539 227.28V198.36H357.159V185.28H370.539V171.48L389.499 169.2V185.28H410.019L408.159 198.36H389.499V227.28C389.499 230.44 390.219 232.7 391.659 234.06C393.099 235.42 395.399 236.1 398.559 236.1C400.799 236.1 402.839 235.84 404.679 235.32C406.559 234.76 408.239 234.06 409.719 233.22L416.019 245.28ZM449.813 183.18C456.373 183.18 461.953 184.58 466.553 187.38C471.153 190.18 474.673 194.12 477.113 199.2C479.553 204.24 480.773 210.16 480.773 216.96C480.773 227.6 478.053 235.94 472.613 241.98C467.173 248.02 459.573 251.04 449.813 251.04C440.053 251.04 432.453 248.06 427.013 242.1C421.573 236.14 418.853 227.8 418.853 217.08C418.853 210.32 420.073 204.4 422.513 199.32C424.993 194.24 428.533 190.28 433.133 187.44C437.773 184.6 443.333 183.18 449.813 183.18ZM449.813 197.16C445.933 197.16 443.053 198.76 441.173 201.96C439.333 205.12 438.413 210.16 438.413 217.08C438.413 224.12 439.333 229.22 441.173 232.38C443.053 235.54 445.933 237.12 449.813 237.12C453.693 237.12 456.553 235.54 458.393 232.38C460.273 229.22 461.213 224.08 461.213 216.96C461.213 210.08 460.273 205.06 458.393 201.9C456.553 198.74 453.693 197.16 449.813 197.16ZM511.326 237.48C514.486 237.48 517.026 236.98 518.946 235.98C520.906 234.98 521.886 233.48 521.886 231.48C521.886 230.12 521.506 228.98 520.746 228.06C519.986 227.14 518.526 226.26 516.366 225.42C514.206 224.58 511.006 223.58 506.766 222.42C500.926 220.86 496.166 218.62 492.486 215.7C488.846 212.78 487.026 208.5 487.026 202.86C487.026 197.18 489.386 192.48 494.106 188.76C498.866 185.04 505.726 183.18 514.686 183.18C520.366 183.18 525.306 183.92 529.506 185.4C533.746 186.84 537.406 188.68 540.486 190.92L532.926 202.08C530.286 200.44 527.446 199.14 524.406 198.18C521.366 197.18 518.306 196.68 515.226 196.68C509.146 196.68 506.106 198.32 506.106 201.6C506.106 202.68 506.486 203.62 507.246 204.42C508.046 205.18 509.526 205.98 511.686 206.82C513.846 207.62 517.006 208.62 521.166 209.82C525.286 210.98 528.866 212.32 531.906 213.84C534.986 215.36 537.366 217.4 539.046 219.96C540.726 222.48 541.566 225.82 541.566 229.98C541.566 234.62 540.186 238.52 537.426 241.68C534.666 244.8 531.006 247.14 526.446 248.7C521.886 250.26 516.886 251.04 511.446 251.04C505.286 251.04 499.846 250.16 495.126 248.4C490.406 246.64 486.386 244.32 483.066 241.44L492.606 230.76C495.086 232.68 497.886 234.28 501.006 235.56C504.166 236.84 507.606 237.48 511.326 237.48Z" fill="white"/>
<path fill-rule="evenodd" clip-rule="evenodd" d="M61.574 201.076C58.5247 206.158 57 211.8 57 218C57 224.099 58.5247 229.74 61.574 234.924C64.6233 240.108 68.7399 244.224 73.9238 247.274C79.1076 250.425 84.7997 252 91 252C97.3019 252 102.994 250.425 108.076 247.274C113.26 244.224 117.377 240.108 120.426 234.924C123.475 229.74 125 224.099 125 218C125 211.8 123.475 206.158 120.426 201.076C117.377 195.892 113.26 191.776 108.076 188.726C102.994 185.575 97.3019 184 91 184C84.7997 184 79.1076 185.575 73.9238 188.726C68.7399 191.776 64.6233 195.892 61.574 201.076ZM69.8567 203.693C69.119 204.928 68.7515 206.297 68.7543 207.802C68.757 209.282 69.1294 210.65 69.8716 211.906C70.6138 213.163 71.6145 214.16 72.8737 214.897C74.1329 215.66 75.5147 216.039 77.0192 216.037C78.5483 216.034 79.9288 215.649 81.1606 214.882C82.4171 214.14 83.4141 213.139 84.1517 211.88C84.8893 210.621 85.2568 209.251 85.2541 207.772C85.2513 206.267 84.8789 204.899 84.1367 203.667C83.3946 202.411 82.3939 201.414 81.1347 200.676C79.9001 199.914 78.5183 199.534 76.9892 199.537C75.4847 199.54 74.1042 199.924 72.8478 200.691C71.5913 201.433 70.5943 202.434 69.8567 203.693Z" fill="white"/>
</svg>
