<svg width="512" height="512" fill="none" xmlns="http://www.w3.org/2000/svg"><path fill-rule="evenodd" clip-rule="evenodd" d="M82.906 156.448C64.969 186.344 56 219.528 56 256c0 35.874 8.969 69.058 26.906 99.552 17.937 30.493 42.152 54.708 72.646 72.645C186.045 446.732 219.528 456 256 456c37.07 0 70.553-9.268 100.448-27.803 30.494-17.937 54.709-42.152 72.646-72.645C447.031 325.058 456 291.874 456 256c0-36.472-8.969-69.656-26.906-99.552-17.937-30.493-42.152-54.708-72.646-72.645C326.553 65.268 293.07 56 256 56c-36.472 0-69.955 9.268-100.448 27.803-30.494 17.937-54.709 42.152-72.646 72.645zm48.721 15.395c-4.339 7.261-6.5 15.317-6.484 24.167.016 8.705 2.207 16.753 6.572 24.144 4.366 7.391 10.253 13.256 17.66 17.595 7.407 4.484 15.535 6.718 24.385 6.701 8.995-.016 17.115-2.279 24.361-6.79 7.391-4.366 13.256-10.252 17.595-17.659 4.339-7.407 6.5-15.463 6.484-24.168-.016-8.85-2.207-16.897-6.572-24.143-4.366-7.391-10.252-13.256-17.659-17.595-7.262-4.485-15.391-6.719-24.386-6.702-8.85.016-16.97 2.28-24.361 6.79-7.391 4.366-13.256 10.253-17.595 17.66z" fill="#33607C"/></svg>